<svg width="70" height="14" viewBox="0 0 70 14" fill="none" xmlns="http://www.w3.org/2000/svg">
<path d="M4.27557 0.818182V11H3.34588V1.79261H3.28622L0.899858 3.37855V2.41406L3.30611 0.818182H4.27557ZM7.66122 11L12.2997 1.71804V1.65341H6.95526V0.818182H13.2741V1.69318L8.64062 11H7.66122ZM14.2473 11.0746C14.0518 11.0746 13.8828 11.005 13.7402 10.8658C13.601 10.7232 13.5314 10.5542 13.5314 10.3587C13.5314 10.1598 13.601 9.99077 13.7402 9.85156C13.8828 9.71236 14.0518 9.64276 14.2473 9.64276C14.4462 9.64276 14.6152 9.71236 14.7544 9.85156C14.8936 9.99077 14.9632 10.1598 14.9632 10.3587C14.9632 10.4879 14.9301 10.6072 14.8638 10.7166C14.8008 10.826 14.7147 10.9138 14.6053 10.9801C14.4992 11.0431 14.3799 11.0746 14.2473 11.0746ZM20.2605 0.678977C20.6847 0.682291 21.0957 0.768466 21.4934 0.9375C21.8945 1.10322 22.2557 1.37169 22.5772 1.7429C22.8987 2.1108 23.1539 2.60133 23.3429 3.21449C23.5318 3.82434 23.6262 4.57505 23.6262 5.46662C23.6262 6.29853 23.5533 7.06084 23.4075 7.75355C23.2617 8.44626 23.0429 9.04616 22.7512 9.55327C22.4629 10.0571 22.0983 10.4482 21.6575 10.7266C21.22 11.0017 20.7079 11.1392 20.1213 11.1392C19.5744 11.1392 19.0888 11.0249 18.6646 10.7962C18.2437 10.5675 17.9023 10.2509 17.6404 9.84659C17.3786 9.43892 17.2162 8.96828 17.1532 8.43466H18.068C18.1575 8.97822 18.3762 9.42566 18.7243 9.77699C19.0756 10.1283 19.5413 10.304 20.1213 10.304C20.9532 10.304 21.5995 9.91619 22.0602 9.14062C22.5209 8.36506 22.7512 7.26136 22.7512 5.82955H22.6866C22.5275 6.12784 22.3187 6.38802 22.0602 6.61009C21.805 6.83215 21.5133 7.00616 21.1852 7.1321C20.8571 7.25473 20.5107 7.31605 20.1461 7.31605C19.5794 7.31605 19.0607 7.17353 18.59 6.88849C18.1194 6.60014 17.7432 6.20739 17.4615 5.71023C17.1797 5.20975 17.0389 4.63968 17.0389 4C17.0389 3.39678 17.1715 2.84328 17.4366 2.33949C17.7051 1.83239 18.0796 1.42803 18.5602 1.12642C19.0441 0.821496 19.6109 0.672348 20.2605 0.678977ZM20.2605 1.5142C19.8197 1.5142 19.4236 1.62689 19.0723 1.85227C18.7243 2.07434 18.4475 2.37429 18.242 2.75213C18.0398 3.12666 17.9387 3.54261 17.9387 4C17.9387 4.4607 18.0398 4.87997 18.242 5.25781C18.4475 5.63234 18.7243 5.93063 19.0723 6.1527C19.4236 6.37145 19.8197 6.48082 20.2605 6.48082C20.5985 6.48082 20.9134 6.41288 21.2051 6.27699C21.4967 6.13778 21.7486 5.94886 21.9608 5.71023C22.1762 5.47159 22.3386 5.20147 22.448 4.89986C22.5607 4.59493 22.6054 4.27509 22.5822 3.94034C22.5424 3.47633 22.4181 3.06203 22.2093 2.69744C22.0038 2.32955 21.7321 2.04119 21.394 1.83239C21.0592 1.62027 20.6814 1.5142 20.2605 1.5142ZM28.7917 0.678977C29.216 0.682291 29.627 0.768466 30.0247 0.9375C30.4257 1.10322 30.787 1.37169 31.1085 1.7429C31.43 2.1108 31.6852 2.60133 31.8741 3.21449C32.063 3.82434 32.1575 4.57505 32.1575 5.46662C32.1575 6.29853 32.0846 7.06084 31.9387 7.75355C31.7929 8.44626 31.5742 9.04616 31.2825 9.55327C30.9941 10.0571 30.6296 10.4482 30.1887 10.7266C29.7512 11.0017 29.2392 11.1392 28.6525 11.1392C28.1056 11.1392 27.6201 11.0249 27.1958 10.7962C26.7749 10.5675 26.4335 10.2509 26.1717 9.84659C25.9099 9.43892 25.7475 8.96828 25.6845 8.43466H26.5993C26.6887 8.97822 26.9075 9.42566 27.2555 9.77699C27.6068 10.1283 28.0725 10.304 28.6525 10.304C29.4844 10.304 30.1307 9.91619 30.5914 9.14062C31.0521 8.36506 31.2825 7.26136 31.2825 5.82955H31.2179C31.0588 6.12784 30.85 6.38802 30.5914 6.61009C30.3362 6.83215 30.0446 7.00616 29.7164 7.1321C29.3883 7.25473 29.042 7.31605 28.6774 7.31605C28.1106 7.31605 27.5919 7.17353 27.1213 6.88849C26.6506 6.60014 26.2744 6.20739 25.9927 5.71023C25.711 5.20975 25.5701 4.63968 25.5701 4C25.5701 3.39678 25.7027 2.84328 25.9679 2.33949C26.2363 1.83239 26.6109 1.42803 27.0914 1.12642C27.5753 0.821496 28.1421 0.672348 28.7917 0.678977ZM28.7917 1.5142C28.3509 1.5142 27.9548 1.62689 27.6035 1.85227C27.2555 2.07434 26.9788 2.37429 26.7733 2.75213C26.5711 3.12666 26.47 3.54261 26.47 4C26.47 4.4607 26.5711 4.87997 26.7733 5.25781C26.9788 5.63234 27.2555 5.93063 27.6035 6.1527C27.9548 6.37145 28.3509 6.48082 28.7917 6.48082C29.1298 6.48082 29.4447 6.41288 29.7363 6.27699C30.028 6.13778 30.2799 5.94886 30.492 5.71023C30.7074 5.47159 30.8699 5.20147 30.9792 4.89986C31.0919 4.59493 31.1367 4.27509 31.1135 3.94034C31.0737 3.47633 30.9494 3.06203 30.7406 2.69744C30.5351 2.32955 30.2633 2.04119 29.9252 1.83239C29.5905 1.62027 29.2127 1.5142 28.7917 1.5142ZM37.4224 11.1392C36.7065 11.1392 36.095 10.9337 35.5879 10.5227C35.0841 10.1084 34.6963 9.51018 34.4245 8.72798C34.1561 7.94579 34.0218 7.00616 34.0218 5.90909C34.0218 4.81534 34.1561 3.87902 34.4245 3.10014C34.6963 2.31794 35.0858 1.7197 35.5929 1.3054C36.1033 0.887784 36.7131 0.678977 37.4224 0.678977C38.1317 0.678977 38.7399 0.887784 39.247 1.3054C39.7574 1.7197 40.1468 2.31794 40.4153 3.10014C40.6871 3.87902 40.823 4.81534 40.823 5.90909C40.823 7.00616 40.6871 7.94579 40.4153 8.72798C40.1468 9.51018 39.7591 10.1084 39.252 10.5227C38.7482 10.9337 38.1383 11.1392 37.4224 11.1392ZM37.4224 10.304C38.2079 10.304 38.8211 9.92116 39.2619 9.15554C39.7027 8.3866 39.9231 7.30445 39.9231 5.90909C39.9231 4.98106 39.822 4.18892 39.6199 3.53267C39.421 2.87311 39.1343 2.36932 38.7598 2.02131C38.3886 1.6733 37.9428 1.49929 37.4224 1.49929C36.6435 1.49929 36.032 1.88707 35.5879 2.66264C35.1438 3.4349 34.9217 4.51705 34.9217 5.90909C34.9217 6.83712 35.0211 7.62926 35.22 8.28551C35.4222 8.94176 35.7089 9.44223 36.0801 9.78693C36.4546 10.1316 36.902 10.304 37.4224 10.304ZM46.8187 13.8636V3.36364H47.6788V4.82031H47.7832C47.8893 4.59162 48.0351 4.35795 48.2207 4.11932C48.4063 3.87737 48.6516 3.67353 48.9565 3.50781C49.2647 3.34209 49.6525 3.25923 50.1199 3.25923C50.7496 3.25923 51.2998 3.42495 51.7704 3.75639C52.2444 4.08452 52.6123 4.54522 52.8741 5.13849C53.1393 5.72846 53.2718 6.41619 53.2718 7.2017C53.2718 7.99053 53.1393 8.68158 52.8741 9.27486C52.6123 9.86813 52.2444 10.3305 51.7704 10.6619C51.2998 10.9934 50.7529 11.1591 50.1298 11.1591C49.6691 11.1591 49.283 11.0762 48.9714 10.9105C48.6632 10.7448 48.4129 10.541 48.2207 10.299C48.0318 10.0537 47.8859 9.8151 47.7832 9.5831H47.7037V13.8636H46.8187ZM47.6937 7.18679C47.6937 7.80327 47.7849 8.35014 47.9672 8.82741C48.1528 9.30137 48.4179 9.67424 48.7626 9.94602C49.1106 10.2145 49.5315 10.3487 50.0254 10.3487C50.5325 10.3487 50.9601 10.2095 51.3081 9.93111C51.6594 9.64938 51.9262 9.26989 52.1085 8.79261C52.2941 8.31534 52.3869 7.78007 52.3869 7.18679C52.3869 6.60014 52.2958 6.0715 52.1135 5.60085C51.9345 5.13021 51.6693 4.75734 51.318 4.48224C50.9667 4.20384 50.5358 4.06463 50.0254 4.06463C49.5282 4.06463 49.1056 4.19886 48.7576 4.46733C48.4096 4.73248 48.1445 5.10038 47.9622 5.57102C47.7832 6.03835 47.6937 6.57694 47.6937 7.18679ZM55.5563 13.8636C55.3806 13.8636 55.2166 13.8471 55.0641 13.8139C54.9116 13.7808 54.7907 13.7443 54.7012 13.7045L54.9398 12.924C55.2414 13.0168 55.5099 13.05 55.7452 13.0234C55.9805 13.0002 56.1893 12.8942 56.3716 12.7053C56.5539 12.5196 56.7163 12.2346 56.8588 11.8501L57.1373 11.0746L54.3283 3.36364H55.2878L57.5549 9.83168H57.6245L59.8915 3.36364H60.851L57.6195 12.2081C57.4836 12.576 57.3162 12.8826 57.1174 13.1278C56.9185 13.3764 56.6882 13.5604 56.4263 13.6797C56.1678 13.8023 55.8778 13.8636 55.5563 13.8636ZM68.081 0.5L68.5433 1.06179C68.3345 1.26397 68.0843 1.40317 67.7926 1.4794C67.5043 1.55232 67.1811 1.59375 66.8232 1.60369C66.4685 1.61364 66.0857 1.62855 65.6747 1.64844C65.0848 1.67827 64.5992 1.83239 64.218 2.1108C63.8369 2.38589 63.5469 2.78362 63.348 3.30398C63.1525 3.82102 63.0298 4.45241 62.9801 5.19815H63.0795C63.3348 4.67779 63.6944 4.28172 64.1584 4.00994C64.6257 3.73816 65.1394 3.60227 65.6996 3.60227C66.2862 3.60227 66.8132 3.74645 67.2805 4.0348C67.7512 4.31984 68.1224 4.73911 68.3942 5.29261C68.6693 5.8428 68.8068 6.51397 68.8068 7.30611C68.8068 8.0883 68.6693 8.76941 68.3942 9.34943C68.1191 9.92614 67.7346 10.3719 67.2408 10.6868C66.7469 11.0017 66.1686 11.1591 65.5057 11.1591C64.8395 11.1591 64.2562 11.0033 63.7557 10.6918C63.2585 10.3769 62.8724 9.91454 62.5973 9.30469C62.3255 8.69152 62.1896 7.9375 62.1896 7.04261V6.24219C62.1896 4.46236 62.4714 3.12334 63.0348 2.22514C63.5982 1.32694 64.465 0.857954 65.6349 0.818182C66.0128 0.804924 66.3558 0.80161 66.6641 0.808238C66.9723 0.811553 67.2441 0.796638 67.4794 0.763494C67.7147 0.727036 67.9152 0.639204 68.081 0.5ZM65.5057 10.3487C65.9995 10.3487 66.4271 10.2244 66.7884 9.97585C67.1496 9.72396 67.428 9.36932 67.6236 8.91193C67.8224 8.45455 67.9219 7.91927 67.9219 7.30611C67.9219 6.69626 67.8208 6.1759 67.6186 5.74503C67.4197 5.31416 67.1413 4.98437 66.7834 4.75568C66.4254 4.52699 66.0062 4.41264 65.5256 4.41264C65.1477 4.41264 64.808 4.48556 64.5064 4.63139C64.2081 4.77391 63.9529 4.97775 63.7408 5.2429C63.5286 5.50805 63.3662 5.8196 63.2536 6.17756C63.1409 6.53551 63.0829 6.92827 63.0795 7.35582C63.0795 8.28054 63.295 9.01136 63.7259 9.5483C64.16 10.0819 64.7533 10.3487 65.5057 10.3487Z" fill="black" fill-opacity="0.25"/>
<path d="M0 6.41619H69.5824V7.37074H0V6.41619Z" fill="black" fill-opacity="0.25"/>
</svg>
