<svg width="11" height="11" viewBox="0 0 11 11" fill="none" xmlns="http://www.w3.org/2000/svg">
<path d="M4.83204 0.422261C5.07075 0.0256169 5.6458 0.0256168 5.8845 0.422261L7.24571 2.68413C7.33147 2.82663 7.47134 2.92825 7.63337 2.96578L10.2052 3.56141C10.6562 3.66586 10.8339 4.21276 10.5304 4.56236L8.79987 6.5559C8.69085 6.68149 8.63742 6.84593 8.6518 7.01161L8.88005 9.64161C8.92007 10.1028 8.45485 10.4408 8.02859 10.2602L5.59785 9.23043C5.44472 9.16556 5.27182 9.16556 5.11869 9.23043L2.68795 10.2602C2.26169 10.4408 1.79647 10.1028 1.8365 9.64161L2.06475 7.01161C2.07913 6.84593 2.0257 6.68149 1.91668 6.5559L0.18615 4.56236C-0.117318 4.21276 0.0603811 3.66586 0.511376 3.56141L3.08318 2.96578C3.2452 2.92825 3.38508 2.82663 3.47083 2.68413L4.83204 0.422261Z" fill="#FFA437"/>
</svg>
